<svg width="154" height="29" viewBox="0 0 154 29" fill="none" xmlns="http://www.w3.org/2000/svg">
<path d="M0.0400001 22V0.999999H3.88V9.73H13.3V0.999999H17.14V22H13.3V12.85H3.88V22H0.0400001ZM22.0916 28.6L25.5416 21.01H24.6416L18.8516 7.12H23.0216L27.1916 17.59L31.5416 7.12H35.6216L26.1716 28.6H22.0916ZM37.232 28.6V7.12H40.652L41.072 9.25C41.552 8.59 42.182 8.01 42.962 7.51C43.762 7.01 44.792 6.76 46.052 6.76C47.452 6.76 48.702 7.1 49.802 7.78C50.902 8.46 51.772 9.39 52.412 10.57C53.052 11.75 53.372 13.09 53.372 14.59C53.372 16.09 53.052 17.43 52.412 18.61C51.772 19.77 50.902 20.69 49.802 21.37C48.702 22.03 47.452 22.36 46.052 22.36C44.932 22.36 43.952 22.15 43.112 21.73C42.272 21.31 41.592 20.72 41.072 19.96V28.6H37.232ZM45.242 19C46.462 19 47.472 18.59 48.272 17.77C49.072 16.95 49.472 15.89 49.472 14.59C49.472 13.29 49.072 12.22 48.272 11.38C47.472 10.54 46.462 10.12 45.242 10.12C44.002 10.12 42.982 10.54 42.182 11.38C41.402 12.2 41.012 13.26 41.012 14.56C41.012 15.86 41.402 16.93 42.182 17.77C42.982 18.59 44.002 19 45.242 19ZM63.1323 22.36C61.6323 22.36 60.3023 22.04 59.1423 21.4C57.9823 20.76 57.0723 19.86 56.4123 18.7C55.7523 17.54 55.4223 16.2 55.4223 14.68C55.4223 13.14 55.7423 11.77 56.3823 10.57C57.0423 9.37 57.9423 8.44 59.0823 7.78C60.2423 7.1 61.6023 6.76 63.1623 6.76C64.6223 6.76 65.9123 7.08 67.0323 7.72C68.1523 8.36 69.0223 9.24 69.6423 10.36C70.2823 11.46 70.6023 12.69 70.6023 14.05C70.6023 14.27 70.5923 14.5 70.5723 14.74C70.5723 14.98 70.5623 15.23 70.5423 15.49H59.2323C59.3123 16.65 59.7123 17.56 60.4323 18.22C61.1723 18.88 62.0623 19.21 63.1023 19.21C63.8823 19.21 64.5323 19.04 65.0523 18.7C65.5923 18.34 65.9923 17.88 66.2523 17.32H70.1523C69.8723 18.26 69.4023 19.12 68.7423 19.9C68.1023 20.66 67.3023 21.26 66.3423 21.7C65.4023 22.14 64.3323 22.36 63.1323 22.36ZM63.1623 9.88C62.2223 9.88 61.3923 10.15 60.6723 10.69C59.9523 11.21 59.4923 12.01 59.2923 13.09H66.7023C66.6423 12.11 66.2823 11.33 65.6223 10.75C64.9623 10.17 64.1423 9.88 63.1623 9.88ZM72.932 22V7.12H76.352L76.712 9.91C77.252 8.95 77.982 8.19 78.902 7.63C79.842 7.05 80.942 6.76 82.202 6.76V10.81H81.122C80.282 10.81 79.532 10.94 78.872 11.2C78.212 11.46 77.692 11.91 77.312 12.55C76.952 13.19 76.772 14.08 76.772 15.22V22H72.932ZM90.0766 22.36C88.7566 22.36 87.5966 22.15 86.5966 21.73C85.5966 21.29 84.7966 20.69 84.1966 19.93C83.5966 19.17 83.2366 18.29 83.1166 17.29H86.9866C87.1066 17.87 87.4266 18.37 87.9466 18.79C88.4866 19.19 89.1766 19.39 90.0166 19.39C90.8566 19.39 91.4666 19.22 91.8466 18.88C92.2466 18.54 92.4466 18.15 92.4466 17.71C92.4466 17.07 92.1666 16.64 91.6066 16.42C91.0466 16.18 90.2666 15.95 89.2666 15.73C88.6266 15.59 87.9766 15.42 87.3166 15.22C86.6566 15.02 86.0466 14.77 85.4866 14.47C84.9466 14.15 84.5066 13.75 84.1666 13.27C83.8266 12.77 83.6566 12.16 83.6566 11.44C83.6566 10.12 84.1766 9.01 85.2166 8.11C86.2766 7.21 87.7566 6.76 89.6566 6.76C91.4166 6.76 92.8166 7.17 93.8566 7.99C94.9166 8.81 95.5466 9.94 95.7466 11.38H92.1166C91.8966 10.28 91.0666 9.73 89.6266 9.73C88.9066 9.73 88.3466 9.87 87.9466 10.15C87.5666 10.43 87.3766 10.78 87.3766 11.2C87.3766 11.64 87.6666 11.99 88.2466 12.25C88.8266 12.51 89.5966 12.75 90.5566 12.97C91.5966 13.21 92.5466 13.48 93.4066 13.78C94.2866 14.06 94.9866 14.49 95.5066 15.07C96.0266 15.63 96.2866 16.44 96.2866 17.5C96.3066 18.42 96.0666 19.25 95.5666 19.99C95.0666 20.73 94.3466 21.31 93.4066 21.73C92.4666 22.15 91.3566 22.36 90.0766 22.36ZM106.078 22.36C104.558 22.36 103.218 22.03 102.058 21.37C100.898 20.71 99.9783 19.79 99.2983 18.61C98.6383 17.43 98.3083 16.08 98.3083 14.56C98.3083 13.04 98.6383 11.69 99.2983 10.51C99.9783 9.33 100.898 8.41 102.058 7.75C103.218 7.09 104.558 6.76 106.078 6.76C107.978 6.76 109.578 7.26 110.878 8.26C112.178 9.24 113.008 10.6 113.368 12.34H109.318C109.118 11.62 108.718 11.06 108.118 10.66C107.538 10.24 106.848 10.03 106.048 10.03C104.988 10.03 104.088 10.43 103.348 11.23C102.608 12.03 102.238 13.14 102.238 14.56C102.238 15.98 102.608 17.09 103.348 17.89C104.088 18.69 104.988 19.09 106.048 19.09C106.848 19.09 107.538 18.89 108.118 18.49C108.718 18.09 109.118 17.52 109.318 16.78H113.368C113.008 18.46 112.178 19.81 110.878 20.83C109.578 21.85 107.978 22.36 106.078 22.36ZM121.007 22.36C119.727 22.36 118.677 22.16 117.857 21.76C117.037 21.34 116.427 20.79 116.027 20.11C115.627 19.43 115.427 18.68 115.427 17.86C115.427 16.48 115.967 15.36 117.047 14.5C118.127 13.64 119.747 13.21 121.907 13.21H125.687V12.85C125.687 11.83 125.397 11.08 124.817 10.6C124.237 10.12 123.517 9.88 122.657 9.88C121.877 9.88 121.197 10.07 120.617 10.45C120.037 10.81 119.677 11.35 119.537 12.07H115.787C115.887 10.99 116.247 10.05 116.867 9.25C117.507 8.45 118.327 7.84 119.327 7.42C120.327 6.98 121.447 6.76 122.687 6.76C124.807 6.76 126.477 7.29 127.697 8.35C128.917 9.41 129.527 10.91 129.527 12.85V22H126.257L125.897 19.6C125.457 20.4 124.837 21.06 124.037 21.58C123.257 22.1 122.247 22.36 121.007 22.36ZM121.877 19.36C122.977 19.36 123.827 19 124.427 18.28C125.047 17.56 125.437 16.67 125.597 15.61H122.327C121.307 15.61 120.577 15.8 120.137 16.18C119.697 16.54 119.477 16.99 119.477 17.53C119.477 18.11 119.697 18.56 120.137 18.88C120.577 19.2 121.157 19.36 121.877 19.36ZM132.291 22V0.399999H136.131V22H132.291ZM146.385 22.36C144.885 22.36 143.555 22.04 142.395 21.4C141.235 20.76 140.325 19.86 139.665 18.7C139.005 17.54 138.675 16.2 138.675 14.68C138.675 13.14 138.995 11.77 139.635 10.57C140.295 9.37 141.195 8.44 142.335 7.78C143.495 7.1 144.855 6.76 146.415 6.76C147.875 6.76 149.165 7.08 150.285 7.72C151.405 8.36 152.275 9.24 152.895 10.36C153.535 11.46 153.855 12.69 153.855 14.05C153.855 14.27 153.845 14.5 153.825 14.74C153.825 14.98 153.815 15.23 153.795 15.49H142.485C142.565 16.65 142.965 17.56 143.685 18.22C144.425 18.88 145.315 19.21 146.355 19.21C147.135 19.21 147.785 19.04 148.305 18.7C148.845 18.34 149.245 17.88 149.505 17.32H153.405C153.125 18.26 152.655 19.12 151.995 19.9C151.355 20.66 150.555 21.26 149.595 21.7C148.655 22.14 147.585 22.36 146.385 22.36ZM146.415 9.88C145.475 9.88 144.645 10.15 143.925 10.69C143.205 11.21 142.745 12.01 142.545 13.09H149.955C149.895 12.11 149.535 11.33 148.875 10.75C148.215 10.17 147.395 9.88 146.415 9.88Z" fill="url(#paint0_linear_635_5603)"/>
<defs>
<linearGradient id="paint0_linear_635_5603" x1="5.73878" y1="44" x2="172.006" y2="24.5045" gradientUnits="userSpaceOnUse">
<stop stop-color="#9048CD"/>
<stop offset="0.442708" stop-color="#7461E4"/>
<stop offset="1" stop-color="#59A9F4"/>
</linearGradient>
</defs>
</svg>
