<svg width="45" height="45" viewBox="0 0 45 45" fill="none" xmlns="http://www.w3.org/2000/svg">
<mask id="mask0_635_5597" style="mask-type:alpha" maskUnits="userSpaceOnUse" x="0" y="0" width="45" height="45">
<path d="M9.23323 21.4068C5.89491 19.2405 4.21875 15.9226 4.21875 11.7187C4.21875 10.8098 4.30039 9.91851 4.45978 9.0515C1.65852 12.8031 0 17.4579 0 22.5C0 34.9264 10.0736 45 22.5 45C23.0692 45 23.6334 44.9789 24.1919 44.9373C32.5946 44.3022 37.0312 38.9352 37.0312 33.2812C37.0312 30.2195 35.8949 28.1467 33.7254 26.7389C32.668 26.0527 31.3246 25.4991 29.6747 25.1006L26.7432 31.875H22.6571L25.8454 24.5073C24.8105 24.42 23.6962 24.375 22.5 24.375C21.7476 24.375 21.0138 24.3585 20.2994 24.3248L21.9021 20.6212C22.0991 20.6237 22.2984 20.625 22.5 20.625C24.2381 20.625 25.8773 20.7129 27.4074 20.8979L30.771 13.125H34.857L31.1824 21.6165C32.9193 22.0898 34.455 22.7419 35.7668 23.5932C39.1051 25.7595 40.7812 29.0774 40.7812 33.2812C40.7812 34.1902 40.6996 35.0815 40.5402 35.9485C43.3415 32.1969 45 27.5421 45 22.5C45 10.0736 34.9264 0 22.5 0C21.9308 0 21.3665 0.0211381 20.8079 0.0626725C12.4053 0.697892 7.96875 6.06486 7.96875 11.7187C7.96875 14.7805 9.10509 16.8533 11.2746 18.2611C12.3307 18.9465 13.6722 19.4995 15.3193 19.8979L18.2502 13.125H22.3363L14.2224 31.875H10.1364L13.8117 23.3819C12.0772 22.9088 10.5435 22.2571 9.23323 21.4068Z" fill="#0A0B65"/>
</mask>
<g mask="url(#mask0_635_5597)">
<path d="M9.23323 21.4068C5.89491 19.2405 4.21875 15.9226 4.21875 11.7187C4.21875 10.8098 4.30039 9.91851 4.45978 9.0515C1.65852 12.8031 0 17.4579 0 22.5C0 34.9264 10.0736 45 22.5 45C23.0692 45 23.6334 44.9789 24.1919 44.9373C32.5946 44.3022 37.0312 38.9352 37.0312 33.2812C37.0312 30.2195 35.8949 28.1467 33.7254 26.7389C32.668 26.0527 31.3246 25.4991 29.6747 25.1006L26.7432 31.875H22.6571L25.8454 24.5073C24.8105 24.42 23.6962 24.375 22.5 24.375C21.7476 24.375 21.0138 24.3585 20.2994 24.3248L21.9021 20.6212C22.0991 20.6237 22.2984 20.625 22.5 20.625C24.2381 20.625 25.8773 20.7129 27.4074 20.8979L30.771 13.125H34.857L31.1824 21.6165C32.9193 22.0898 34.455 22.7419 35.7668 23.5932C39.1051 25.7595 40.7812 29.0774 40.7812 33.2812C40.7812 34.1902 40.6996 35.0815 40.5402 35.9485C43.3415 32.1969 45 27.5421 45 22.5C45 10.0736 34.9264 0 22.5 0C21.9308 0 21.3665 0.0211381 20.8079 0.0626725C12.4053 0.697892 7.96875 6.06486 7.96875 11.7187C7.96875 14.7805 9.10509 16.8533 11.2746 18.2611C12.3307 18.9465 13.6722 19.4995 15.3193 19.8979L18.2502 13.125H22.3363L14.2224 31.875H10.1364L13.8117 23.3819C12.0772 22.9088 10.5435 22.2571 9.23323 21.4068Z" fill="#5D5FEF"/>
<circle cx="31.875" cy="47.1094" r="34.6875" fill="url(#paint0_radial_635_5597)"/>
<circle opacity="0.9" cx="43.125" cy="-5.85938" r="38.4375" fill="url(#paint1_radial_635_5597)"/>
<circle opacity="0.5" cx="-3.75" cy="35.3906" r="34.4531" fill="url(#paint2_radial_635_5597)"/>
</g>
<defs>
<radialGradient id="paint0_radial_635_5597" cx="0" cy="0" r="1" gradientUnits="userSpaceOnUse" gradientTransform="translate(31.875 47.1094) rotate(90) scale(34.6875)">
<stop stop-color="#9D9FFF"/>
<stop offset="1" stop-color="#5D5FEF" stop-opacity="0"/>
</radialGradient>
<radialGradient id="paint1_radial_635_5597" cx="0" cy="0" r="1" gradientUnits="userSpaceOnUse" gradientTransform="translate(43.125 -5.85938) rotate(90) scale(38.4375)">
<stop stop-color="#4FFEFE"/>
<stop offset="1" stop-color="#5DBAEF" stop-opacity="0"/>
</radialGradient>
<radialGradient id="paint2_radial_635_5597" cx="0" cy="0" r="1" gradientUnits="userSpaceOnUse" gradientTransform="translate(-3.75 35.3906) rotate(90) scale(34.4531)">
<stop stop-color="#ED008E"/>
<stop offset="1" stop-color="#EF5D92" stop-opacity="0"/>
</radialGradient>
</defs>
</svg>
