<svg width="1440" height="88" viewBox="0 0 1440 88" fill="none" xmlns="http://www.w3.org/2000/svg">
<g clip-path="url(#clip0_1321_11269)">
<rect width="1440" height="88" fill="url(#paint0_linear_1321_11269)"/>
<circle opacity="0.3" cx="561.5" cy="-135.5" r="643.5" fill="url(#paint1_radial_1321_11269)"/>
<circle opacity="0.2" cx="-216.5" cy="2.5" r="465.5" fill="url(#paint2_radial_1321_11269)"/>
<ellipse opacity="0.2" cx="1218.5" cy="-74" rx="592.5" ry="593" fill="url(#paint3_radial_1321_11269)" fill-opacity="0.7"/>
<path opacity="0.4" d="M638 132L712.646 -40L721.471 -40L646.824 132H638Z" fill="url(#paint4_linear_1321_11269)"/>
<path opacity="0.1" d="M550 255L651.948 19L664 19L562.052 255H550Z" fill="url(#paint5_linear_1321_11269)"/>
<path opacity="0.4" d="M476 84L577.948 -152L590 -152L488.052 84H476Z" fill="url(#paint6_linear_1321_11269)"/>
</g>
<defs>
<linearGradient id="paint0_linear_1321_11269" x1="720" y1="0" x2="720" y2="88" gradientUnits="userSpaceOnUse">
<stop stop-color="#FBFBFF"/>
<stop offset="1" stop-color="#FAFAFE"/>
</linearGradient>
<radialGradient id="paint1_radial_1321_11269" cx="0" cy="0" r="1" gradientUnits="userSpaceOnUse" gradientTransform="translate(561.5 -135.5) rotate(90) scale(643.5)">
<stop stop-color="#5D5FEF"/>
<stop offset="1" stop-color="#5D5FEF" stop-opacity="0"/>
</radialGradient>
<radialGradient id="paint2_radial_1321_11269" cx="0" cy="0" r="1" gradientUnits="userSpaceOnUse" gradientTransform="translate(-216.5 2.5) rotate(90) scale(465.5)">
<stop stop-color="#ED008E"/>
<stop offset="1" stop-color="#EF5D92" stop-opacity="0"/>
</radialGradient>
<radialGradient id="paint3_radial_1321_11269" cx="0" cy="0" r="1" gradientUnits="userSpaceOnUse" gradientTransform="translate(1218.5 -74) rotate(90) scale(593 592.5)">
<stop stop-color="#4FD4FE"/>
<stop offset="1" stop-color="#5DBAEF" stop-opacity="0"/>
</radialGradient>
<linearGradient id="paint4_linear_1321_11269" x1="679.735" y1="-40" x2="679.735" y2="132" gradientUnits="userSpaceOnUse">
<stop stop-color="#677DF2"/>
<stop offset="1" stop-color="#677DF2" stop-opacity="0"/>
</linearGradient>
<linearGradient id="paint5_linear_1321_11269" x1="663.357" y1="19" x2="573.209" y2="218.327" gradientUnits="userSpaceOnUse">
<stop stop-color="#677DF2"/>
<stop offset="1" stop-color="#677DF2" stop-opacity="0"/>
</linearGradient>
<linearGradient id="paint6_linear_1321_11269" x1="533" y1="-152" x2="533" y2="84" gradientUnits="userSpaceOnUse">
<stop stop-color="#677DF2"/>
<stop offset="1" stop-color="#677DF2" stop-opacity="0"/>
</linearGradient>
<clipPath id="clip0_1321_11269">
<rect width="1440" height="88" fill="white"/>
</clipPath>
</defs>
</svg>
